<svg width="185" height="15" viewBox="0 0 185 15" fill="none" xmlns="http://www.w3.org/2000/svg">
<path d="M5.88008 6.40185C5.90925 6.20935 5.97341 6.04019 6.05508 5.90019C6.12508 5.74852 6.25342 5.62602 6.39925 5.53269C6.53925 5.44519 6.70842 5.40435 6.93008 5.39852C7.06425 5.40435 7.18675 5.42769 7.29175 5.47435C7.41425 5.52685 7.51925 5.60852 7.60091 5.68435C7.68258 5.77185 7.74675 5.87685 7.79925 5.99352C7.85175 6.11019 7.87508 6.23852 7.87508 6.36685H8.92508C8.91342 6.09269 8.86092 5.84185 8.75008 5.60852C8.66258 5.38685 8.52842 5.18852 8.35342 5.02519C8.16675 4.86185 7.96842 4.73352 7.72341 4.64019C7.47842 4.54685 7.21008 4.50602 6.91258 4.50602C6.53342 4.50602 6.20091 4.57019 5.92091 4.70435C5.64091 4.83852 5.40758 5.02519 5.22091 5.24102C5.03425 5.46852 4.89425 5.73102 4.80675 6.03435C4.71925 6.33769 4.66675 6.65269 4.66675 6.99102V7.14852C4.66675 7.48685 4.71341 7.80185 4.80091 8.10519C4.88841 8.40852 5.02841 8.67102 5.21508 8.89269C5.40175 9.10852 5.63508 9.29519 5.91508 9.42352C6.19508 9.55186 6.52758 9.62185 6.90675 9.62185C7.18092 9.62185 7.43758 9.57519 7.67675 9.48769C7.91592 9.40019 8.12592 9.27769 8.30675 9.10852C8.48758 8.96269 8.63342 8.78185 8.75008 8.57185C8.84342 8.36185 8.90758 8.14019 8.91341 7.90102H7.87508C7.87508 8.02352 7.83425 8.13435 7.78175 8.23352C7.72925 8.34435 7.65925 8.43185 7.58342 8.50769C7.48425 8.58352 7.38508 8.64185 7.26841 8.68269C7.15758 8.72352 7.04092 8.73519 6.91842 8.74102C6.70842 8.73519 6.53342 8.69435 6.39925 8.60685C6.25342 8.52519 6.12508 8.39102 6.05508 8.23352C5.97341 8.09935 5.90925 7.92435 5.88008 7.73185C5.85091 7.53935 5.83342 7.34102 5.83342 7.14852V6.99102C5.83342 6.77519 5.85091 6.59435 5.88008 6.40185ZM7.00008 1.23352C6.23404 1.23352 5.47549 1.3844 4.76776 1.67756C4.06003 1.97071 3.41697 2.40039 2.87529 2.94206C1.78133 4.03603 1.16675 5.51976 1.16675 7.06685C1.16675 8.61395 1.78133 10.0977 2.87529 11.1916C3.41697 11.7333 4.06003 12.163 4.76776 12.4562C5.47549 12.7493 6.23404 12.9002 7.00008 12.9002C8.54718 12.9002 10.0309 12.2856 11.1249 11.1916C12.2188 10.0977 12.8334 8.61395 12.8334 7.06685C12.8334 6.30081 12.6825 5.54227 12.3894 4.83453C12.0962 4.1268 11.6665 3.48374 11.1249 2.94206C10.5832 2.40039 9.94014 1.97071 9.2324 1.67756C8.52467 1.3844 7.76613 1.23352 7.00008 1.23352ZM7.00008 11.7335C4.42758 11.7335 2.33341 9.63935 2.33341 7.06685C2.33341 4.49435 4.42758 2.40019 7.00008 2.40019C9.57258 2.40019 11.6667 4.49435 11.6667 7.06685C11.6667 9.63935 9.57258 11.7335 7.00008 11.7335Z" fill="#A2A2A2"/>
<path d="M66.1348 11.0669H66.9844L67.9277 8.47705H71.5078L72.4512 11.0669H73.2949L70.1133 2.61182H69.3223L66.1348 11.0669ZM69.709 3.59033H69.7266L71.2559 7.78564H68.1797L69.709 3.59033ZM74.1504 11.0669H74.9238V2.61182H74.1504V11.0669ZM76.3652 11.0669H77.1387V2.61182H76.3652V11.0669ZM80.9883 11.0669H81.7617V7.29346C81.7617 6.26221 82.3125 5.60596 83.1797 5.60596C83.4434 5.60596 83.6602 5.64697 83.7598 5.68799V4.93213C83.666 4.90283 83.4844 4.86182 83.2793 4.86182C82.541 4.86182 82.002 5.32471 81.7852 6.06885H81.7617V4.97314H80.9883V11.0669ZM85.0488 3.87158C85.3301 3.87158 85.5586 3.64307 85.5586 3.35596C85.5586 3.06885 85.3301 2.84619 85.0488 2.84619C84.7617 2.84619 84.5332 3.06885 84.5332 3.35596C84.5332 3.64307 84.7617 3.87158 85.0488 3.87158ZM84.6562 11.0669H85.4355V4.97314H84.6562V11.0669ZM89.3672 13.229C90.9785 13.229 91.9863 12.3149 91.9863 10.9087V4.97314H91.207V6.26221H91.1895C90.8555 5.45361 90.0996 4.86182 89.127 4.86182C87.5918 4.86182 86.5312 6.104 86.5312 7.99072V7.99658C86.5312 9.89502 87.5801 11.1372 89.1152 11.1372C90.0938 11.1372 90.8672 10.5688 91.1895 9.77197H91.207V10.8442C91.207 11.8813 90.5273 12.5376 89.3613 12.5376C88.4297 12.5376 87.8086 12.1743 87.6035 11.6821L87.5801 11.6294H86.8008L86.8125 11.6763C87.0293 12.5376 87.9199 13.229 89.3672 13.229ZM89.2676 10.4458C88.0898 10.4458 87.3281 9.48486 87.3281 7.99658V7.99072C87.3281 6.52002 88.0898 5.55322 89.2676 5.55322C90.4102 5.55322 91.207 6.53174 91.207 7.99072V7.99658C91.207 9.46143 90.416 10.4458 89.2676 10.4458ZM93.3691 11.0669H94.1484V7.4751C94.1484 6.34424 94.8516 5.55908 95.9062 5.55908C96.9434 5.55908 97.5762 6.23877 97.5762 7.43994V11.0669H98.3555V7.31689C98.3555 5.82275 97.4766 4.86768 96.1582 4.86768C95.1855 4.86768 94.4766 5.34229 94.166 6.08643H94.1484V2.61182H93.3691V11.0669ZM101.473 11.1782C101.66 11.1782 101.859 11.1548 101.982 11.1313V10.4985C101.895 10.5103 101.771 10.5278 101.631 10.5278C101.062 10.5278 100.775 10.2993 100.775 9.62549V5.62354H101.982V4.97314H100.775V3.32666H99.9785V4.97314H99.082V5.62354H99.9785V9.63721C99.9785 10.7036 100.471 11.1782 101.473 11.1782ZM105.158 11.1782C106.494 11.1782 107.461 10.4458 107.461 9.40869V9.40283C107.461 8.54736 106.998 8.07275 105.785 7.77979L104.865 7.56299C104.062 7.36963 103.734 7.05908 103.734 6.57275V6.56689C103.734 5.9458 104.285 5.51807 105.111 5.51807C105.961 5.51807 106.5 5.98096 106.6 6.68994L106.605 6.73096H107.35L107.344 6.6665C107.244 5.61768 106.412 4.86182 105.111 4.86182C103.84 4.86182 102.943 5.58252 102.943 6.59619V6.60205C102.943 7.4458 103.494 7.94971 104.643 8.2251L105.562 8.44775C106.377 8.64111 106.67 8.92822 106.67 9.45557V9.46143C106.67 10.1001 106.084 10.522 105.164 10.522C104.244 10.522 103.676 10.0649 103.553 9.36182L103.541 9.30908H102.768L102.773 9.36182C102.891 10.4399 103.775 11.1782 105.158 11.1782ZM110.965 11.0669H111.738V7.29346C111.738 6.26221 112.289 5.60596 113.156 5.60596C113.42 5.60596 113.637 5.64697 113.736 5.68799V4.93213C113.643 4.90283 113.461 4.86182 113.256 4.86182C112.518 4.86182 111.979 5.32471 111.762 6.06885H111.738V4.97314H110.965V11.0669ZM116.689 11.1782C118.008 11.1782 118.98 10.4224 119.191 9.37939L119.203 9.3208H118.436L118.424 9.37354C118.225 10.0356 117.604 10.4868 116.707 10.4868C115.506 10.4868 114.727 9.66064 114.703 8.20752H119.279V7.90283C119.279 6.08057 118.254 4.86182 116.625 4.86182C114.996 4.86182 113.918 6.12158 113.918 8.03174V8.0376C113.918 9.96533 114.979 11.1782 116.689 11.1782ZM116.619 5.55322C117.662 5.55322 118.412 6.26221 118.5 7.59229H114.715C114.809 6.29736 115.582 5.55322 116.619 5.55322ZM122.408 11.1782C123.744 11.1782 124.711 10.4458 124.711 9.40869V9.40283C124.711 8.54736 124.248 8.07275 123.035 7.77979L122.115 7.56299C121.312 7.36963 120.984 7.05908 120.984 6.57275V6.56689C120.984 5.9458 121.535 5.51807 122.361 5.51807C123.211 5.51807 123.75 5.98096 123.85 6.68994L123.855 6.73096H124.6L124.594 6.6665C124.494 5.61768 123.662 4.86182 122.361 4.86182C121.09 4.86182 120.193 5.58252 120.193 6.59619V6.60205C120.193 7.4458 120.744 7.94971 121.893 8.2251L122.812 8.44775C123.627 8.64111 123.92 8.92822 123.92 9.45557V9.46143C123.92 10.1001 123.334 10.522 122.414 10.522C121.494 10.522 120.926 10.0649 120.803 9.36182L120.791 9.30908H120.018L120.023 9.36182C120.141 10.4399 121.025 11.1782 122.408 11.1782ZM128.221 11.1782C129.539 11.1782 130.512 10.4224 130.723 9.37939L130.734 9.3208H129.967L129.955 9.37354C129.756 10.0356 129.135 10.4868 128.238 10.4868C127.037 10.4868 126.258 9.66064 126.234 8.20752H130.811V7.90283C130.811 6.08057 129.785 4.86182 128.156 4.86182C126.527 4.86182 125.449 6.12158 125.449 8.03174V8.0376C125.449 9.96533 126.51 11.1782 128.221 11.1782ZM128.15 5.55322C129.193 5.55322 129.943 6.26221 130.031 7.59229H126.246C126.34 6.29736 127.113 5.55322 128.15 5.55322ZM131.848 11.0669H132.621V7.29346C132.621 6.26221 133.172 5.60596 134.039 5.60596C134.303 5.60596 134.52 5.64697 134.619 5.68799V4.93213C134.525 4.90283 134.344 4.86182 134.139 4.86182C133.4 4.86182 132.861 5.32471 132.645 6.06885H132.621V4.97314H131.848V11.0669ZM137.15 11.0669H137.977L140.238 4.97314H139.43L137.572 10.2524H137.555L135.703 4.97314H134.883L137.15 11.0669ZM143.279 11.1782C144.598 11.1782 145.57 10.4224 145.781 9.37939L145.793 9.3208H145.025L145.014 9.37354C144.814 10.0356 144.193 10.4868 143.297 10.4868C142.096 10.4868 141.316 9.66064 141.293 8.20752H145.869V7.90283C145.869 6.08057 144.844 4.86182 143.215 4.86182C141.586 4.86182 140.508 6.12158 140.508 8.03174V8.0376C140.508 9.96533 141.568 11.1782 143.279 11.1782ZM143.209 5.55322C144.252 5.55322 145.002 6.26221 145.09 7.59229H141.305C141.398 6.29736 142.172 5.55322 143.209 5.55322ZM149.18 11.1782C150.141 11.1782 150.902 10.6392 151.254 9.80127H151.277V11.0669H152.057V2.61182H151.277V6.24463H151.26C150.914 5.40088 150.129 4.86182 149.174 4.86182C147.65 4.86182 146.602 6.10986 146.602 8.01416V8.02002C146.602 9.92432 147.645 11.1782 149.18 11.1782ZM149.326 10.4868C148.154 10.4868 147.398 9.52588 147.398 8.02002V8.01416C147.398 6.52002 148.154 5.55322 149.326 5.55322C150.463 5.55322 151.283 6.54932 151.283 8.01416V8.02002C151.283 9.49072 150.475 10.4868 149.326 10.4868ZM156.029 13.1177H156.75V2.61182H156.029V13.1177ZM160.723 11.0669H166.236V10.3521H161.836V10.3228L164.098 7.96729C165.598 6.42041 166.02 5.729 166.02 4.8208V4.80908C166.02 3.49658 164.924 2.47705 163.418 2.47705C161.895 2.47705 160.705 3.52002 160.682 4.93213V4.98486H161.455L161.461 4.93799C161.484 3.94775 162.305 3.18018 163.436 3.18018C164.467 3.18018 165.217 3.88916 165.223 4.84424V4.85596C165.223 5.59424 164.924 6.104 163.711 7.36377L160.723 10.5044V11.0669ZM170.332 11.2017C172.242 11.2017 173.391 9.52588 173.391 6.84814V6.83057C173.391 4.15869 172.242 2.47705 170.332 2.47705C168.422 2.47705 167.279 4.15283 167.279 6.83057V6.84814C167.279 9.52002 168.422 11.2017 170.332 11.2017ZM170.332 10.4985C168.914 10.4985 168.082 9.09229 168.082 6.84814V6.83057C168.082 4.58643 168.914 3.18604 170.332 3.18604C171.75 3.18604 172.588 4.58057 172.588 6.83057V6.84814C172.588 9.08643 171.75 10.4985 170.332 10.4985ZM174.551 11.0669H180.064V10.3521H175.664V10.3228L177.926 7.96729C179.426 6.42041 179.848 5.729 179.848 4.8208V4.80908C179.848 3.49658 178.752 2.47705 177.246 2.47705C175.723 2.47705 174.533 3.52002 174.51 4.93213V4.98486H175.283L175.289 4.93799C175.312 3.94775 176.133 3.18018 177.264 3.18018C178.295 3.18018 179.045 3.88916 179.051 4.84424V4.85596C179.051 5.59424 178.752 6.104 177.539 7.36377L174.551 10.5044V11.0669ZM183.428 11.0669H184.201V2.61182H183.416L181.137 4.17627V4.99072L183.404 3.46729H183.428V11.0669Z" fill="#A2A2A2"/>
<path d="M16.7729 2.49586H22.3757V3.59922H17.9499V6.18606H22.0692V7.28946H17.9499V10.0724H22.5964V11.1758H16.773V2.49582L16.7729 2.49586ZM26.7893 10.2931C27.0835 10.2931 27.3491 10.2421 27.5862 10.1399C27.8232 10.0377 28.0234 9.89877 28.1869 9.72305C28.3503 9.54733 28.477 9.33484 28.5669 9.08556C28.6569 8.83626 28.7018 8.5645 28.7018 8.27029C28.7018 7.97603 28.6569 7.70427 28.5669 7.45499C28.477 7.2057 28.3503 6.9932 28.1869 6.81748C28.0234 6.64176 27.8232 6.50282 27.5862 6.40063C27.3491 6.29847 27.0835 6.24738 26.7893 6.24738C26.495 6.24738 26.2294 6.29845 25.9924 6.40063C25.7553 6.50282 25.5551 6.64176 25.3916 6.81748C25.2282 6.9932 25.1015 7.2057 25.0116 7.45499C24.9216 7.70427 24.8767 7.97603 24.8767 8.27029C24.8767 8.56451 24.9216 8.83628 25.0116 9.08556C25.1015 9.33484 25.2282 9.54733 25.3916 9.72305C25.5551 9.89877 25.7553 10.0377 25.9924 10.1399C26.2294 10.2421 26.495 10.2931 26.7893 10.2931ZM29.8052 11.1759H28.7018V10.3422H28.6773C28.4648 10.6528 28.1726 10.8939 27.8007 11.0655C27.4288 11.2372 27.0467 11.323 26.6544 11.323C26.2049 11.323 25.7983 11.2453 25.4345 11.09C25.0708 10.9348 24.7603 10.7181 24.5028 10.4403C24.2453 10.1624 24.0471 9.83953 23.9082 9.47172C23.7693 9.10394 23.6998 8.70343 23.6998 8.27027C23.6998 7.83708 23.7693 7.43452 23.9082 7.06267C24.0471 6.69078 24.2453 6.36794 24.5028 6.09414C24.7603 5.82033 25.0708 5.60577 25.4345 5.45048C25.7983 5.2952 26.2049 5.21753 26.6544 5.21753C27.0712 5.21753 27.4636 5.3054 27.8313 5.48112C28.1992 5.65687 28.4811 5.89593 28.6773 6.19833H28.7018V1.90735H29.8052V11.1758V11.1759ZM37.3205 8.27029C37.3205 7.84524 37.4002 7.44888 37.5596 7.08106C37.7189 6.71325 37.9376 6.39043 38.2155 6.11252C38.4934 5.83464 38.8203 5.616 39.1963 5.45664C39.5722 5.29725 39.9768 5.21755 40.41 5.21755C40.8432 5.21755 41.2478 5.29725 41.6237 5.45664C41.9997 5.616 42.3266 5.83464 42.6045 6.11252C42.8824 6.39043 43.1011 6.71325 43.2604 7.08106C43.4198 7.44888 43.4995 7.84524 43.4995 8.27029C43.4995 8.6953 43.4198 9.09374 43.2604 9.46563C43.1011 9.83748 42.8824 10.1603 42.6045 10.4341C42.3266 10.7079 41.9997 10.9246 41.6237 11.0839C41.2478 11.2433 40.8432 11.323 40.41 11.323C39.9768 11.323 39.5722 11.2433 39.1963 11.0839C38.8203 10.9245 38.4934 10.7079 38.2155 10.4341C37.9376 10.1603 37.7189 9.83748 37.5596 9.46563C37.4002 9.09374 37.3205 8.6953 37.3205 8.27029ZM38.4975 8.27029C38.4975 8.56451 38.5424 8.83628 38.6323 9.08556C38.7222 9.33484 38.8489 9.54733 39.0124 9.72305C39.1758 9.89877 39.3761 10.0377 39.6131 10.1399C39.8501 10.2421 40.1158 10.2931 40.41 10.2931C40.7042 10.2931 40.9699 10.2421 41.2069 10.1399C41.4439 10.0377 41.6442 9.89877 41.8077 9.72305C41.9711 9.54733 42.0978 9.33484 42.1877 9.08556C42.2776 8.83626 42.3226 8.5645 42.3226 8.27029C42.3226 7.97603 42.2776 7.70427 42.1877 7.45499C42.0978 7.2057 41.9711 6.9932 41.8077 6.81748C41.6442 6.64176 41.4439 6.50282 41.2069 6.40063C40.9699 6.29847 40.7042 6.24738 40.41 6.24738C40.1158 6.24738 39.8501 6.29845 39.6131 6.40063C39.3761 6.50282 39.1758 6.64176 39.0124 6.81748C38.8489 6.9932 38.7222 7.2057 38.6323 7.45499C38.5424 7.70427 38.4975 7.97603 38.4975 8.27029ZM44.8849 5.36467H45.9883V6.25964H46.0128C46.0863 6.10435 46.1844 5.96335 46.307 5.83668C46.4296 5.70999 46.5665 5.60169 46.7177 5.51179C46.8689 5.42188 47.0344 5.35036 47.2142 5.29723C47.3941 5.24409 47.5739 5.21753 47.7537 5.21753C47.9335 5.21753 48.097 5.24206 48.2441 5.29109L48.1951 6.48032C48.1052 6.45579 48.0152 6.43536 47.9253 6.41901C47.8354 6.40267 47.7455 6.39448 47.6556 6.39448C47.1162 6.39448 46.7034 6.54568 46.4174 6.84808C46.1313 7.15052 45.9883 7.62046 45.9883 8.25799V11.1758H44.8849V5.36464L44.8849 5.36467ZM52.5595 8.38059C52.298 8.38059 52.0303 8.39492 51.7565 8.42352C51.4827 8.45212 51.2334 8.5073 51.0087 8.58902C50.7839 8.67076 50.6 8.78519 50.4569 8.93231C50.3139 9.07943 50.2424 9.26742 50.2424 9.49625C50.2424 9.83135 50.3548 10.0724 50.5795 10.2196C50.8043 10.3667 51.1088 10.4403 51.4929 10.4403C51.7953 10.4403 52.0528 10.3892 52.2653 10.287C52.4778 10.1848 52.6494 10.052 52.7802 9.88857C52.911 9.72507 53.005 9.54324 53.0622 9.343C53.1194 9.14275 53.148 8.94455 53.148 8.7484V8.38058H52.5595V8.38059ZM49.4455 6.07574C49.7561 5.78968 50.1157 5.57513 50.5244 5.43212C50.933 5.28907 51.3417 5.21755 51.7504 5.21755C52.1754 5.21755 52.5411 5.27069 52.8476 5.37694C53.1541 5.48321 53.4054 5.62622 53.6016 5.80606C53.7978 5.98585 53.9428 6.19224 54.0368 6.42515C54.1308 6.6581 54.1778 6.90127 54.1778 7.15462V10.1215C54.1778 10.3259 54.1819 10.5138 54.1901 10.6855C54.1982 10.8571 54.2105 11.0206 54.2268 11.1759H53.246C53.2215 10.8816 53.2093 10.5874 53.2093 10.2931H53.1847C52.9396 10.6691 52.6494 10.9348 52.3143 11.09C51.9792 11.2453 51.591 11.323 51.1496 11.323C50.8799 11.323 50.6225 11.2862 50.3772 11.2126C50.132 11.1391 49.9175 11.0287 49.7336 10.8816C49.5497 10.7345 49.4046 10.5526 49.2984 10.3361C49.1921 10.1195 49.139 9.86813 49.139 9.58208C49.139 9.20611 49.2228 8.89142 49.3903 8.63805C49.5579 8.38469 49.7867 8.1783 50.0769 8.01893C50.367 7.85957 50.7062 7.74512 51.0944 7.67567C51.4827 7.60618 51.8975 7.57144 52.3388 7.57144H53.148V7.32627C53.148 7.17915 53.1194 7.03201 53.0622 6.88489C53.0049 6.73776 52.9191 6.60496 52.8047 6.48644C52.6903 6.36794 52.5472 6.27394 52.3756 6.20449C52.204 6.135 51.9996 6.10026 51.7626 6.10026C51.5501 6.10026 51.3641 6.12071 51.2048 6.16157C51.0454 6.20242 50.9003 6.25354 50.7695 6.31482C50.6388 6.37612 50.5203 6.44764 50.414 6.52938C50.3077 6.61111 50.2056 6.68874 50.1075 6.7623L49.4455 6.07576L49.4455 6.07574Z" fill="#A2A2A2"/>
<path d="M54.2269 1.90735L16.7729 11.3229M16.7729 1.90735L54.2269 11.3229L16.7729 1.90735Z" stroke="#A2A2A2" stroke-width="0.003" stroke-miterlimit="2.61313"/>
<path d="M31.5687 5.65188C31.2889 5.44436 30.8246 5.63302 30.7701 5.97781C30.7125 6.20107 30.8519 6.40334 30.9514 6.59095C31.2763 7.14223 31.5855 7.70189 31.9157 8.25004C32.6405 7.87749 33.2866 7.52799 33.9416 7.08675C33.1524 6.6235 32.3569 6.11615 31.5687 5.65186V5.65188Z" fill="#F8931D"/>
<path d="M33.9412 7.08301L35.9804 8.25872C35.4827 9.10628 34.9597 10.0351 34.463 10.8827C34.3492 11.0996 34.1004 11.258 33.8515 11.1932C33.6198 11.1538 33.4751 10.9454 33.3634 10.7593C32.8807 9.92239 32.3989 9.08541 31.915 8.25064L33.9412 7.08301Z" fill="#EF3E36"/>
<path d="M36.2902 5.65315C36.5742 5.44259 37.0453 5.63401 37.1006 5.98387C37.1591 6.21041 37.0176 6.41564 36.9166 6.60599L35.9806 8.25878L33.9414 7.08307C34.7422 6.61302 35.4905 6.12425 36.2902 5.65315H36.2902Z" fill="#A01F62"/>
<circle cx="60" cy="7.06689" r="1" fill="#CBCBCB"/>
</svg>


