<svg width="43" height="43" viewBox="0 0 43 43" fill="none" xmlns="http://www.w3.org/2000/svg">
<mask id="mask0" mask-type="alpha" maskUnits="userSpaceOnUse" x="11" y="12" width="22" height="20">
<path fill-rule="evenodd" clip-rule="evenodd" d="M11.474 12.5193H32.4319V31.2115H11.474V12.5193Z" fill="white"/>
</mask>
<g mask="url(#mask0)">
<path fill-rule="evenodd" clip-rule="evenodd" d="M14.1487 12.8061C13.2261 12.1186 11.6954 12.7435 11.5158 13.8858C11.3258 14.6254 11.7854 15.2954 12.1136 15.9169C13.1846 17.7432 14.2039 19.5972 15.2923 21.4132C17.6817 20.179 19.8118 19.0212 21.9711 17.5594C19.3695 16.0248 16.7469 14.3441 14.1487 12.8061Z" fill="#F8931D"/>
<path fill-rule="evenodd" clip-rule="evenodd" d="M21.9695 17.5472L28.692 21.4421C27.0514 24.2497 25.3272 27.3268 23.6898 30.1344C23.3148 30.8533 22.4944 31.3781 21.674 31.1632C20.9099 31.0328 20.4331 30.3424 20.0649 29.7259C18.4734 26.9533 16.8851 24.1807 15.2901 21.4152L21.9695 17.5472Z" fill="#EF3E36"/>
<path fill-rule="evenodd" clip-rule="evenodd" d="M29.7145 12.8102C30.6507 12.1127 32.2037 12.7468 32.3859 13.9059C32.5787 14.6563 32.1125 15.3362 31.7794 15.9668L28.6938 21.4421L21.9713 17.5473C24.6113 15.9901 27.0782 14.3709 29.7145 12.8102Z" fill="#A01F62"/>
</g>
</svg>
